ply
format ascii 1.0
comment VCGLIB generated
comment TextureFile tex_0.jpg
comment TextureFile tex_1.jpg
element vertex 8
property float x
property float y
property float z
element face 12
property list uchar int vertex_indices
property list uchar float texcoord
property int texnumber
end_header
0.5 0.5 0.5
-0.5 0.5 0.5
0.5 -0.5 0.5
-0.5 -0.5 0.5
0.5 0.5 -0.5
-0.5 0.5 -0.5
0.5 -0.5 -0.5
-0.5 -0.5 -0.5
3 0 1 2 6 0 0 0.1 0.1 0.2 0.2 0
3 3 2 1 6 0 0 -0.1 -0.1 -0.2 -0.2 0
3 0 2 4 6 0 0 0.1 0.1 0.2 0.3 1
3 6 4 2 6 0 0 0.1 0.1 0.2 0.2 1
3 0 4 1 6 0 0 0.1 0.1 0.2 0.2 1
3 5 1 4 6 0 0 0.1 0.1 0.2 0.2 1
3 7 5 6 6 0 0 0.1 0.1 0.2 0.2 0
3 4 6 5 6 0 0 0.1 0.1 0.2 0.2 0
3 7 6 3 6 0 0 0.1 0.1 0.2 0.2 0
3 2 3 6 6 0 0 0.1 0.1 0.2 0.2 0
3 7 3 5 6 0 0 0.1 0.1 0.2 0.2 0
3 1 5 3 6 0 0 0.1 0.1 0.2 0.2 0
